<?xml version="1.0" encoding="UTF-8"?>
<svg xmlns="http://www.w3.org/2000/svg" version="1.1" width="400" height="400" viewBox="0 0 400 400"><rect x="0" y="0" width="400" height="400" fill="#ffffff"/><g transform="scale(13.793)"><g transform="translate(0,0)"><path fill-rule="evenodd" d="M9 0L9 1L8 1L8 2L9 2L9 3L8 3L8 4L9 4L9 5L8 5L8 7L9 7L9 8L6 8L6 9L5 9L5 8L0 8L0 10L1 10L1 9L2 9L2 11L0 11L0 12L1 12L1 13L0 13L0 16L1 16L1 17L0 17L0 21L1 21L1 18L2 18L2 19L3 19L3 21L7 21L7 20L4 20L4 18L5 18L5 19L11 19L11 20L10 20L10 22L9 22L9 20L8 20L8 23L9 23L9 24L8 24L8 29L9 29L9 28L10 28L10 29L11 29L11 28L10 28L10 26L12 26L12 27L14 27L14 26L15 26L15 27L16 27L16 28L17 28L17 29L18 29L18 28L17 28L17 27L19 27L19 28L22 28L22 27L23 27L23 26L24 26L24 27L26 27L26 26L24 26L24 25L27 25L27 24L25 24L25 23L27 23L27 22L29 22L29 20L28 20L28 19L27 19L27 16L28 16L28 15L27 15L27 12L28 12L28 11L27 11L27 12L25 12L25 9L26 9L26 8L25 8L25 9L24 9L24 8L23 8L23 9L22 9L22 8L20 8L20 9L18 9L18 8L19 8L19 5L20 5L20 3L21 3L21 0L18 0L18 2L19 2L19 5L18 5L18 8L17 8L17 9L16 9L16 8L13 8L13 9L9 9L9 8L11 8L11 5L13 5L13 6L12 6L12 7L13 7L13 6L14 6L14 7L15 7L15 6L16 6L16 7L17 7L17 4L18 4L18 3L17 3L17 4L16 4L16 2L17 2L17 0L16 0L16 1L14 1L14 0ZM9 1L9 2L10 2L10 1ZM11 1L11 2L12 2L12 3L9 3L9 4L13 4L13 3L15 3L15 2L12 2L12 1ZM19 1L19 2L20 2L20 1ZM14 4L14 5L16 5L16 4ZM9 6L9 7L10 7L10 6ZM20 6L20 7L21 7L21 6ZM27 8L27 9L28 9L28 10L29 10L29 9L28 9L28 8ZM6 9L6 10L5 10L5 11L6 11L6 12L8 12L8 13L5 13L5 12L4 12L4 11L3 11L3 13L1 13L1 14L2 14L2 15L3 15L3 13L5 13L5 14L4 14L4 15L5 15L5 16L2 16L2 18L3 18L3 17L5 17L5 18L10 18L10 17L9 17L9 16L7 16L7 15L10 15L10 16L11 16L11 15L12 15L12 17L11 17L11 19L12 19L12 18L13 18L13 16L14 16L14 18L17 18L17 20L16 20L16 21L14 21L14 22L16 22L16 23L17 23L17 24L16 24L16 25L15 25L15 26L16 26L16 25L17 25L17 26L18 26L18 25L19 25L19 27L20 27L20 23L19 23L19 24L18 24L18 23L17 23L17 22L19 22L19 20L21 20L21 19L22 19L22 18L21 18L21 17L20 17L20 16L21 16L21 14L22 14L22 17L23 17L23 18L24 18L24 19L25 19L25 21L26 21L26 20L27 20L27 19L25 19L25 18L24 18L24 17L26 17L26 16L27 16L27 15L26 15L26 13L25 13L25 12L24 12L24 9L23 9L23 12L22 12L22 13L20 13L20 12L21 12L21 11L22 11L22 10L21 10L21 9L20 9L20 10L19 10L19 11L18 11L18 10L17 10L17 11L15 11L15 12L19 12L19 13L20 13L20 14L18 14L18 15L17 15L17 16L15 16L15 14L16 14L16 13L15 13L15 14L14 14L14 13L13 13L13 12L14 12L14 10L16 10L16 9L13 9L13 10L9 10L9 9L8 9L8 10L7 10L7 9ZM6 10L6 11L7 11L7 10ZM8 10L8 12L9 12L9 13L8 13L8 14L9 14L9 13L10 13L10 12L12 12L12 11L9 11L9 10ZM23 12L23 13L22 13L22 14L23 14L23 13L24 13L24 14L25 14L25 13L24 13L24 12ZM11 13L11 14L13 14L13 15L14 15L14 14L13 14L13 13ZM28 13L28 14L29 14L29 13ZM5 14L5 15L7 15L7 14ZM23 15L23 16L24 16L24 15ZM5 16L5 17L7 17L7 16ZM17 16L17 17L18 17L18 16ZM19 17L19 18L18 18L18 19L19 19L19 18L20 18L20 17ZM28 17L28 18L29 18L29 17ZM13 19L13 20L11 20L11 21L12 21L12 22L10 22L10 23L11 23L11 25L12 25L12 26L14 26L14 25L12 25L12 24L14 24L14 23L13 23L13 20L14 20L14 19ZM17 20L17 21L16 21L16 22L17 22L17 21L18 21L18 20ZM21 21L21 24L24 24L24 21ZM22 22L22 23L23 23L23 22ZM17 24L17 25L18 25L18 24ZM9 25L9 26L10 26L10 25ZM22 25L22 26L21 26L21 27L22 27L22 26L23 26L23 25ZM28 25L28 26L27 26L27 28L24 28L24 29L27 29L27 28L28 28L28 26L29 26L29 25ZM12 28L12 29L15 29L15 28ZM0 0L0 7L7 7L7 0ZM1 1L1 6L6 6L6 1ZM2 2L2 5L5 5L5 2ZM22 0L22 7L29 7L29 0ZM23 1L23 6L28 6L28 1ZM24 2L24 5L27 5L27 2ZM0 22L0 29L7 29L7 22ZM1 23L1 28L6 28L6 23ZM2 24L2 27L5 27L5 24Z" fill="#000000"/></g></g></svg>
