<?xml version="1.0" encoding="UTF-8"?>
<svg xmlns="http://www.w3.org/2000/svg" version="1.1" width="400" height="400" viewBox="0 0 400 400"><rect x="0" y="0" width="400" height="400" fill="#ffffff"/><g transform="scale(12.121)"><g transform="translate(0,0)"><path fill-rule="evenodd" d="M8 0L8 1L11 1L11 3L10 3L10 2L9 2L9 3L10 3L10 5L9 5L9 6L8 6L8 8L9 8L9 9L10 9L10 10L9 10L9 11L10 11L10 10L11 10L11 9L10 9L10 7L11 7L11 6L12 6L12 9L14 9L14 12L13 12L13 13L12 13L12 14L13 14L13 13L15 13L15 12L16 12L16 13L17 13L17 12L19 12L19 13L18 13L18 14L19 14L19 15L18 15L18 17L17 17L17 14L14 14L14 15L12 15L12 16L11 16L11 15L10 15L10 14L11 14L11 12L5 12L5 11L4 11L4 9L5 9L5 10L6 10L6 11L8 11L8 9L7 9L7 8L6 8L6 9L5 9L5 8L3 8L3 9L2 9L2 8L0 8L0 9L2 9L2 10L0 10L0 11L2 11L2 13L3 13L3 14L4 14L4 15L3 15L3 16L4 16L4 17L2 17L2 14L1 14L1 16L0 16L0 17L2 17L2 18L3 18L3 19L4 19L4 17L7 17L7 18L6 18L6 19L7 19L7 20L5 20L5 21L4 21L4 20L1 20L1 18L0 18L0 25L7 25L7 24L6 24L6 23L8 23L8 26L9 26L9 23L10 23L10 22L11 22L11 24L10 24L10 26L11 26L11 28L12 28L12 27L14 27L14 26L15 26L15 28L14 28L14 29L11 29L11 30L9 30L9 28L8 28L8 30L9 30L9 31L8 31L8 33L9 33L9 32L10 32L10 31L12 31L12 33L16 33L16 31L20 31L20 32L17 32L17 33L21 33L21 31L22 31L22 32L24 32L24 33L26 33L26 32L27 32L27 31L28 31L28 32L29 32L29 30L28 30L28 29L29 29L29 24L31 24L31 25L30 25L30 26L32 26L32 24L31 24L31 23L33 23L33 22L32 22L32 21L30 21L30 20L33 20L33 15L32 15L32 16L31 16L31 15L30 15L30 12L31 12L31 13L33 13L33 12L31 12L31 11L30 11L30 10L29 10L29 9L28 9L28 10L26 10L26 9L27 9L27 8L26 8L26 9L25 9L25 8L24 8L24 7L25 7L25 6L24 6L24 5L23 5L23 6L22 6L22 8L23 8L23 11L24 11L24 12L23 12L23 14L22 14L22 15L23 15L23 16L22 16L22 18L21 18L21 16L20 16L20 17L19 17L19 15L20 15L20 14L19 14L19 13L21 13L21 11L20 11L20 12L19 12L19 11L18 11L18 10L17 10L17 12L16 12L16 11L15 11L15 9L19 9L19 10L20 10L20 9L21 9L21 6L20 6L20 8L15 8L15 5L16 5L16 3L15 3L15 2L16 2L16 0L13 0L13 1L12 1L12 0ZM17 0L17 2L18 2L18 3L17 3L17 5L18 5L18 4L20 4L20 3L21 3L21 4L23 4L23 3L22 3L22 2L23 2L23 0L20 0L20 1L19 1L19 2L18 2L18 0ZM20 1L20 2L19 2L19 3L20 3L20 2L22 2L22 1ZM24 1L24 2L25 2L25 1ZM12 2L12 4L14 4L14 5L15 5L15 4L14 4L14 3L13 3L13 2ZM24 3L24 4L25 4L25 3ZM10 5L10 6L9 6L9 7L10 7L10 6L11 6L11 5ZM12 5L12 6L13 6L13 8L14 8L14 6L13 6L13 5ZM16 6L16 7L17 7L17 6ZM18 6L18 7L19 7L19 6ZM23 6L23 7L24 7L24 6ZM32 8L32 9L31 9L31 10L32 10L32 11L33 11L33 10L32 10L32 9L33 9L33 8ZM6 9L6 10L7 10L7 9ZM24 9L24 11L26 11L26 12L27 12L27 11L26 11L26 10L25 10L25 9ZM12 10L12 11L13 11L13 10ZM3 11L3 12L4 12L4 11ZM28 11L28 13L24 13L24 14L23 14L23 15L24 15L24 14L29 14L29 11ZM0 12L0 13L1 13L1 12ZM4 13L4 14L5 14L5 13ZM6 13L6 14L10 14L10 13ZM5 15L5 16L7 16L7 17L8 17L8 20L9 20L9 21L8 21L8 22L10 22L10 20L11 20L11 19L12 19L12 21L11 21L11 22L12 22L12 23L13 23L13 22L12 22L12 21L13 21L13 19L12 19L12 18L15 18L15 17L16 17L16 15L15 15L15 16L13 16L13 17L12 17L12 18L11 18L11 17L10 17L10 16L9 16L9 15L8 15L8 16L7 16L7 15ZM25 15L25 16L24 16L24 17L23 17L23 18L24 18L24 19L23 19L23 20L22 20L22 19L21 19L21 21L20 21L20 22L19 22L19 23L18 23L18 21L19 21L19 20L20 20L20 19L18 19L18 18L19 18L19 17L18 17L18 18L16 18L16 19L14 19L14 25L15 25L15 24L16 24L16 26L18 26L18 27L16 27L16 28L17 28L17 29L18 29L18 30L19 30L19 29L18 29L18 27L19 27L19 26L21 26L21 27L20 27L20 28L21 28L21 29L20 29L20 30L22 30L22 31L23 31L23 30L22 30L22 27L23 27L23 28L24 28L24 27L23 27L23 26L24 26L24 24L28 24L28 23L30 23L30 21L29 21L29 20L30 20L30 19L32 19L32 18L31 18L31 16L30 16L30 15L29 15L29 16L30 16L30 17L29 17L29 18L28 18L28 15ZM8 16L8 17L9 17L9 16ZM26 16L26 17L25 17L25 19L24 19L24 20L25 20L25 22L26 22L26 23L28 23L28 22L29 22L29 21L28 21L28 20L29 20L29 19L28 19L28 18L27 18L27 16ZM26 18L26 19L27 19L27 18ZM16 19L16 20L15 20L15 23L16 23L16 24L18 24L18 25L19 25L19 24L20 24L20 25L21 25L21 26L22 26L22 25L21 25L21 23L19 23L19 24L18 24L18 23L17 23L17 21L18 21L18 20L17 20L17 19ZM16 20L16 21L17 21L17 20ZM26 20L26 22L28 22L28 21L27 21L27 20ZM2 21L2 22L1 22L1 24L2 24L2 22L3 22L3 23L6 23L6 22L7 22L7 21L6 21L6 22L3 22L3 21ZM21 21L21 22L22 22L22 24L23 24L23 23L24 23L24 21ZM11 25L11 26L13 26L13 25ZM25 25L25 28L28 28L28 25ZM26 26L26 27L27 27L27 26ZM30 27L30 28L31 28L31 27ZM32 27L32 28L33 28L33 27ZM25 29L25 31L24 31L24 32L25 32L25 31L27 31L27 29ZM30 29L30 30L31 30L31 31L30 31L30 32L33 32L33 29ZM12 30L12 31L13 31L13 32L14 32L14 31L15 31L15 30ZM0 0L0 7L7 7L7 0ZM1 1L1 6L6 6L6 1ZM2 2L2 5L5 5L5 2ZM26 0L26 7L33 7L33 0ZM27 1L27 6L32 6L32 1ZM28 2L28 5L31 5L31 2ZM0 26L0 33L7 33L7 26ZM1 27L1 32L6 32L6 27ZM2 28L2 31L5 31L5 28Z" fill="#000000"/></g></g></svg>
