<?xml version="1.0" encoding="UTF-8"?>
<svg xmlns="http://www.w3.org/2000/svg" version="1.1" width="400" height="400" viewBox="0 0 400 400"><rect x="0" y="0" width="400" height="400" fill="#ffffff"/><g transform="scale(12.121)"><g transform="translate(0,0)"><path fill-rule="evenodd" d="M9 0L9 1L11 1L11 2L9 2L9 3L8 3L8 5L9 5L9 6L8 6L8 7L9 7L9 9L8 9L8 8L5 8L5 9L7 9L7 10L6 10L6 11L8 11L8 12L6 12L6 13L5 13L5 12L3 12L3 10L4 10L4 11L5 11L5 10L4 10L4 9L2 9L2 8L0 8L0 10L1 10L1 11L0 11L0 12L1 12L1 11L2 11L2 12L3 12L3 13L2 13L2 14L3 14L3 15L2 15L2 19L1 19L1 20L3 20L3 19L4 19L4 17L3 17L3 15L4 15L4 14L5 14L5 15L7 15L7 14L6 14L6 13L8 13L8 14L9 14L9 15L8 15L8 17L7 17L7 16L6 16L6 17L5 17L5 18L6 18L6 19L5 19L5 20L4 20L4 22L3 22L3 21L0 21L0 25L3 25L3 24L1 24L1 22L2 22L2 23L4 23L4 22L5 22L5 24L4 24L4 25L5 25L5 24L6 24L6 25L7 25L7 24L8 24L8 28L10 28L10 29L9 29L9 31L8 31L8 33L9 33L9 31L10 31L10 33L11 33L11 31L12 31L12 33L13 33L13 32L14 32L14 33L16 33L16 32L17 32L17 33L18 33L18 32L17 32L17 31L16 31L16 30L17 30L17 29L19 29L19 32L20 32L20 33L21 33L21 32L20 32L20 31L22 31L22 33L23 33L23 32L24 32L24 33L25 33L25 32L24 32L24 31L25 31L25 29L27 29L27 31L28 31L28 33L29 33L29 30L31 30L31 31L30 31L30 32L31 32L31 33L32 33L32 32L31 32L31 31L33 31L33 27L32 27L32 26L33 26L33 25L32 25L32 24L31 24L31 23L32 23L32 20L31 20L31 19L30 19L30 20L29 20L29 19L28 19L28 18L27 18L27 17L25 17L25 19L24 19L24 17L23 17L23 16L25 16L25 14L26 14L26 15L28 15L28 17L29 17L29 18L30 18L30 17L29 17L29 15L30 15L30 16L31 16L31 18L32 18L32 19L33 19L33 17L32 17L32 16L33 16L33 15L32 15L32 14L33 14L33 12L31 12L31 11L30 11L30 12L29 12L29 9L30 9L30 8L28 8L28 10L27 10L27 12L26 12L26 11L22 11L22 12L23 12L23 14L24 14L24 15L23 15L23 16L22 16L22 17L23 17L23 18L21 18L21 17L19 17L19 16L17 16L17 15L16 15L16 14L15 14L15 12L16 12L16 13L17 13L17 11L14 11L14 12L13 12L13 13L12 13L12 14L13 14L13 15L12 15L12 17L13 17L13 16L14 16L14 17L15 17L15 18L12 18L12 19L11 19L11 18L10 18L10 19L9 19L9 18L8 18L8 17L9 17L9 15L10 15L10 14L11 14L11 12L12 12L12 11L13 11L13 10L11 10L11 8L10 8L10 7L11 7L11 4L12 4L12 5L13 5L13 6L12 6L12 9L13 9L13 8L14 8L14 10L15 10L15 9L16 9L16 8L14 8L14 7L15 7L15 5L16 5L16 7L17 7L17 6L18 6L18 7L19 7L19 8L17 8L17 9L19 9L19 10L20 10L20 12L18 12L18 13L19 13L19 14L18 14L18 15L19 15L19 14L21 14L21 10L20 10L20 9L21 9L21 8L20 8L20 7L21 7L21 6L20 6L20 7L19 7L19 6L18 6L18 5L16 5L16 3L17 3L17 4L20 4L20 5L21 5L21 4L23 4L23 5L22 5L22 9L23 9L23 10L24 10L24 9L25 9L25 10L26 10L26 9L25 9L25 8L24 8L24 7L25 7L25 6L24 6L24 7L23 7L23 5L24 5L24 4L25 4L25 3L24 3L24 4L23 4L23 0L20 0L20 2L18 2L18 0L17 0L17 2L16 2L16 0L13 0L13 1L12 1L12 0ZM13 1L13 2L12 2L12 4L14 4L14 2L15 2L15 3L16 3L16 2L15 2L15 1ZM21 1L21 2L22 2L22 1ZM24 1L24 2L25 2L25 1ZM17 2L17 3L18 3L18 2ZM9 3L9 5L10 5L10 3ZM20 3L20 4L21 4L21 3ZM9 6L9 7L10 7L10 6ZM13 6L13 7L14 7L14 6ZM19 8L19 9L20 9L20 8ZM9 9L9 10L10 10L10 11L9 11L9 12L8 12L8 13L9 13L9 14L10 14L10 13L9 13L9 12L10 12L10 11L11 11L11 10L10 10L10 9ZM31 9L31 10L32 10L32 9ZM28 12L28 13L27 13L27 14L28 14L28 15L29 15L29 12ZM30 12L30 15L31 15L31 16L32 16L32 15L31 15L31 12ZM0 13L0 14L1 14L1 13ZM3 13L3 14L4 14L4 13ZM24 13L24 14L25 14L25 13ZM15 15L15 16L16 16L16 15ZM6 17L6 18L7 18L7 19L6 19L6 20L7 20L7 21L5 21L5 22L7 22L7 21L8 21L8 22L10 22L10 21L11 21L11 23L10 23L10 24L9 24L9 26L10 26L10 28L11 28L11 26L13 26L13 27L12 27L12 29L10 29L10 30L12 30L12 31L14 31L14 32L16 32L16 31L15 31L15 30L12 30L12 29L15 29L15 23L14 23L14 25L11 25L11 24L12 24L12 23L13 23L13 22L12 22L12 21L14 21L14 22L15 22L15 20L14 20L14 19L12 19L12 21L11 21L11 19L10 19L10 20L9 20L9 19L8 19L8 18L7 18L7 17ZM16 17L16 18L19 18L19 17ZM26 18L26 19L25 19L25 20L24 20L24 19L23 19L23 21L24 21L24 22L23 22L23 23L22 23L22 22L21 22L21 21L22 21L22 19L20 19L20 20L19 20L19 19L16 19L16 20L19 20L19 21L17 21L17 22L19 22L19 23L16 23L16 24L17 24L17 28L16 28L16 29L17 29L17 28L18 28L18 26L19 26L19 27L20 27L20 30L22 30L22 31L23 31L23 30L24 30L24 27L23 27L23 29L22 29L22 26L24 26L24 24L29 24L29 28L30 28L30 29L32 29L32 27L31 27L31 26L32 26L32 25L31 25L31 24L30 24L30 23L29 23L29 22L30 22L30 21L31 21L31 20L30 20L30 21L29 21L29 22L28 22L28 21L27 21L27 18ZM20 20L20 21L19 21L19 22L20 22L20 23L19 23L19 24L18 24L18 25L19 25L19 26L20 26L20 27L21 27L21 26L22 26L22 25L21 25L21 22L20 22L20 21L21 21L21 20ZM25 21L25 22L26 22L26 21ZM27 22L27 23L28 23L28 22ZM6 23L6 24L7 24L7 23ZM23 23L23 24L24 24L24 23ZM19 24L19 25L20 25L20 24ZM10 25L10 26L11 26L11 25ZM25 25L25 28L28 28L28 25ZM30 25L30 26L31 26L31 25ZM26 26L26 27L27 27L27 26ZM30 27L30 28L31 28L31 27ZM0 0L0 7L7 7L7 0ZM1 1L1 6L6 6L6 1ZM2 2L2 5L5 5L5 2ZM26 0L26 7L33 7L33 0ZM27 1L27 6L32 6L32 1ZM28 2L28 5L31 5L31 2ZM0 26L0 33L7 33L7 26ZM1 27L1 32L6 32L6 27ZM2 28L2 31L5 31L5 28Z" fill="#000000"/></g></g></svg>
