<?xml version="1.0" encoding="UTF-8"?>
<svg xmlns="http://www.w3.org/2000/svg" version="1.1" width="400" height="400" viewBox="0 0 400 400"><rect x="0" y="0" width="400" height="400" fill="#ffffff"/><g transform="scale(13.793)"><g transform="translate(0,0)"><path fill-rule="evenodd" d="M10 0L10 2L11 2L11 0ZM12 0L12 1L13 1L13 2L12 2L12 4L13 4L13 5L11 5L11 6L10 6L10 4L11 4L11 3L8 3L8 4L9 4L9 5L8 5L8 7L9 7L9 8L6 8L6 9L5 9L5 8L0 8L0 9L3 9L3 11L2 11L2 12L0 12L0 13L3 13L3 11L5 11L5 10L6 10L6 11L7 11L7 12L6 12L6 13L7 13L7 14L6 14L6 15L9 15L9 16L10 16L10 14L8 14L8 13L11 13L11 14L12 14L12 15L13 15L13 13L15 13L15 12L13 12L13 13L11 13L11 12L9 12L9 9L10 9L10 11L11 11L11 9L12 9L12 10L13 10L13 11L14 11L14 10L15 10L15 11L16 11L16 12L17 12L17 13L16 13L16 14L14 14L14 15L16 15L16 16L17 16L17 17L16 17L16 18L14 18L14 20L13 20L13 19L11 19L11 18L13 18L13 17L15 17L15 16L13 16L13 17L10 17L10 18L8 18L8 20L6 20L6 19L7 19L7 18L5 18L5 19L4 19L4 18L3 18L3 20L6 20L6 21L8 21L8 23L9 23L9 20L10 20L10 19L11 19L11 20L13 20L13 21L11 21L11 22L10 22L10 26L13 26L13 27L12 27L12 28L13 28L13 29L14 29L14 28L15 28L15 29L18 29L18 28L15 28L15 27L17 27L17 26L19 26L19 24L17 24L17 25L16 25L16 24L14 24L14 25L11 25L11 24L13 24L13 23L14 23L14 22L15 22L15 23L17 23L17 21L18 21L18 22L19 22L19 23L20 23L20 27L19 27L19 28L22 28L22 27L23 27L23 26L24 26L24 27L26 27L26 26L24 26L24 25L28 25L28 26L27 26L27 28L24 28L24 29L27 29L27 28L28 28L28 26L29 26L29 25L28 25L28 23L27 23L27 22L29 22L29 20L28 20L28 19L27 19L27 16L28 16L28 15L27 15L27 12L28 12L28 11L27 11L27 12L25 12L25 9L26 9L26 8L25 8L25 9L24 9L24 8L23 8L23 9L22 9L22 8L20 8L20 9L18 9L18 8L19 8L19 5L20 5L20 3L21 3L21 0L19 0L19 1L18 1L18 2L19 2L19 5L17 5L17 4L18 4L18 3L15 3L15 2L16 2L16 1L14 1L14 0ZM8 1L8 2L9 2L9 1ZM19 1L19 2L20 2L20 1ZM13 2L13 3L14 3L14 2ZM14 4L14 5L16 5L16 4ZM9 6L9 7L10 7L10 6ZM11 6L11 7L12 7L12 8L14 8L14 6L13 6L13 7L12 7L12 6ZM15 6L15 7L16 7L16 6ZM17 6L17 8L16 8L16 9L15 9L15 10L16 10L16 11L17 11L17 12L18 12L18 13L20 13L20 14L18 14L18 15L17 15L17 14L16 14L16 15L17 15L17 16L18 16L18 17L17 17L17 19L16 19L16 21L15 21L15 22L16 22L16 21L17 21L17 20L18 20L18 21L19 21L19 20L21 20L21 19L22 19L22 18L21 18L21 17L20 17L20 16L21 16L21 14L22 14L22 17L23 17L23 18L24 18L24 19L25 19L25 21L26 21L26 20L27 20L27 19L25 19L25 18L24 18L24 17L26 17L26 16L27 16L27 15L26 15L26 13L25 13L25 12L24 12L24 9L23 9L23 12L22 12L22 13L20 13L20 12L21 12L21 11L22 11L22 10L21 10L21 9L20 9L20 10L19 10L19 11L17 11L17 10L18 10L18 9L17 9L17 8L18 8L18 6ZM20 6L20 7L21 7L21 6ZM10 8L10 9L11 9L11 8ZM27 8L27 9L28 9L28 10L29 10L29 9L28 9L28 8ZM4 9L4 10L5 10L5 9ZM6 9L6 10L7 10L7 11L8 11L8 10L7 10L7 9ZM13 9L13 10L14 10L14 9ZM16 9L16 10L17 10L17 9ZM4 12L4 14L5 14L5 12ZM7 12L7 13L8 13L8 12ZM23 12L23 13L22 13L22 14L23 14L23 13L24 13L24 14L25 14L25 13L24 13L24 12ZM28 13L28 14L29 14L29 13ZM1 14L1 15L0 15L0 16L1 16L1 17L0 17L0 21L1 21L1 18L2 18L2 16L3 16L3 17L8 17L8 16L5 16L5 15L3 15L3 14ZM23 15L23 16L24 16L24 15ZM18 17L18 18L20 18L20 17ZM28 17L28 18L29 18L29 17ZM18 19L18 20L19 20L19 19ZM13 21L13 22L14 22L14 21ZM21 21L21 24L24 24L24 21ZM11 22L11 23L12 23L12 22ZM22 22L22 23L23 23L23 22ZM25 23L25 24L27 24L27 23ZM8 24L8 29L11 29L11 27L10 27L10 28L9 28L9 24ZM15 25L15 26L16 26L16 25ZM22 25L22 26L21 26L21 27L22 27L22 26L23 26L23 25ZM13 27L13 28L14 28L14 27ZM0 0L0 7L7 7L7 0ZM1 1L1 6L6 6L6 1ZM2 2L2 5L5 5L5 2ZM22 0L22 7L29 7L29 0ZM23 1L23 6L28 6L28 1ZM24 2L24 5L27 5L27 2ZM0 22L0 29L7 29L7 22ZM1 23L1 28L6 28L6 23ZM2 24L2 27L5 27L5 24Z" fill="#000000"/></g></g></svg>
